<svg id="line" height="512" viewBox="0 0 64 64" width="512" xmlns="http://www.w3.org/2000/svg"><path d="m52 45a9 9 0 0 0 .94-17.95 9.24 9.24 0 0 0 .06-1.05 9 9 0 0 0 -9-9 9.21 9.21 0 0 0 -2.33.31 13 13 0 0 0 -22.67 8.69c0 .34 0 .69.05 1.05a9 9 0 0 0 .95 17.95h7v4.59l-4.25 4.24a5 5 0 1 0 1.42 1.42l4.54-4.54a1 1 0 0 0 .29-.71v-5h6v8.1a5 5 0 1 0 2 0v-8.1h6v5a1 1 0 0 0 .29.71l4.54 4.54a5 5 0 1 0 1.42-1.42l-4.25-4.24v-4.59zm-28-4a1 1 0 0 1 0-2h24a1 1 0 0 1 0 2z" fill="#c4a2fc"/><g fill="#151a6a"><path d="m25.66 50.94a34.54 34.54 0 0 1 -22.66-32.35v-8.59a1 1 0 0 1 .66-1l22-8a1 1 0 0 1 .68 0l22 8a1 1 0 0 1 .66 1v8.61a34.54 34.54 0 0 1 -22.66 32.33 1 1 0 0 1 -.68 0zm-20.66-40.26v7.91a32.51 32.51 0 0 0 21 30.34 32.51 32.51 0 0 0 21-30.34v-7.91l-21-7.62z"/><path d="m17.15 34.52-5-8.16a1 1 0 0 1 0-1.06l5-7.84a1 1 0 1 1 1.68 1.08l-4.66 7.31 4.67 7.63a1 1 0 1 1 -1.7 1z"/><path d="m33.48 34.85a1 1 0 0 1 -.33-1.37l4.67-7.63-4.66-7.31a1 1 0 0 1 1.68-1.08l5 7.84a1 1 0 0 1 0 1.06l-5 8.16a1 1 0 0 1 -1.36.33z"/><path d="m22.45 34.93a1 1 0 0 1 -.56-1.3l6.36-16a1 1 0 1 1 1.86.74l-6.36 16a1 1 0 0 1 -1.3.56z"/></g></svg>