<svg id="Line" height="512" viewBox="0 0 64 64" width="512" xmlns="http://www.w3.org/2000/svg"><rect fill="#c4a2fc" height="11" rx="3" width="48" x="15" y="23"/><path d="m18 36v5a21 21 0 0 0 42 0v-5zm10.72 17.29a1 1 0 0 1 -1.41 0 17.08 17.08 0 0 1 -4.46-7 1 1 0 0 1 1.9-.63 15 15 0 0 0 3.94 6.2 1 1 0 0 1 .03 1.43zm10.28-2.29a6 6 0 1 1 6-6 6 6 0 0 1 -6 6z" fill="#c4a2fc"/><path d="m1 32v10a3 3 0 0 0 3 3h1a3 3 0 0 0 3-3v-4h2a1 1 0 0 0 .71-.29l7-7 2.62 2.6c1.07 1.07 2.75 1.47 3.77.46l1.68-1.66 4.51 4.49a2.92 2.92 0 0 0 4.11.12l.12-.11a4 4 0 0 0 5.62 0l3.31-3.29 6.74-1.32a1 1 0 0 0 .51-1.69l-28.15-28a1 1 0 0 0 -1.41 0l-10.67 10.59a2.9 2.9 0 0 0 .12 4.1l5.32 5.3-1.66 1.7c-.82.81-.87 2.43.46 3.76l1.59 1.58-6.71 6.66h-1.59v-4a3 3 0 0 0 -3-3h-1a3 3 0 0 0 -3 3zm47-1.61-4.67.93-24.28-24.12 2.8-2.79zm-12 4.81 4.15-4.2 1.39 1.39-2.81 2.8a2 2 0 0 1 -2.8 0zm-24-19.62a.92.92 0 0 1 -.12-1.26l5.75-5.71 21.1 21-5.73 5.69a.92.92 0 0 1 -1.29-.11zm4.12 10.71a1.21 1.21 0 0 1 -.45-.94l1.66-1.64 7 7-1.67 1.65a1.25 1.25 0 0 1 -1-.45zm-13.12 5.71a1 1 0 0 1 1-1h1a1 1 0 0 1 1 1v10a1 1 0 0 1 -1 1h-1a1 1 0 0 1 -1-1z" fill="#151a6a"/></svg>